# xmcd CD database file
#
# Track frame offsets:
#	187
#	27662
#	59912
#	83762
#	108900
#	139012
#	167800
#	196225
#
# Disc length: 3069 seconds
#
# Revision: 0
# Processed by: cddbd v1.5.2PL0 Copyright (c) Steve Scherf et al.
# Submitted via: CDex 1.70beta1
#
DISCID=6e0bfb08
DTITLE=辛島文雄 - Open The Gate
DYEAR=1996
DGENRE=Jazz
TTITLE0=I Feel A Wind
TTITLE1=Israel
TTITLE2=We'll Be Together Again
TTITLE3=Speak Low
TTITLE4=Open The Gate
TTITLE5=Come Rain Or Come Shine
TTITLE6=With A Dream
TTITLE7=Blue In Green
EXTD=YEAR: 1996
EXTT0=
EXTT1=
EXTT2=
EXTT3=
EXTT4=
EXTT5=
EXTT6=
EXTT7=
PLAYORDER=
